<svg width="80" height="80" viewBox="0 0 80 80" fill="none" xmlns="http://www.w3.org/2000/svg">
<g clip-path="url(#clip0_2_13)">
<path d="M32 52V28C32 27.57 32 27.14 32 26.71C32.3321 19.5098 35.428 12.7149 40.6435 7.73977C45.859 2.7646 52.7921 -0.00766822 60 -1.47127e-05H30.9C26.8418 -0.00132869 22.8231 0.797027 19.0735 2.34943C15.324 3.90184 11.9171 6.17786 9.04747 9.04746C6.17788 11.917 3.90185 15.324 2.34945 19.0735C0.797043 22.8231 -0.00131236 26.8418 1.61932e-06 30.9V64H20C23.1826 64 26.2348 62.7357 28.4853 60.4853C30.7357 58.2348 32 55.1826 32 52Z" fill="#C6E6F6"/>
<path d="M48 28V52C48 52.43 48 52.86 48 53.29C47.6679 60.4902 44.572 67.285 39.3565 72.2602C34.141 77.2354 27.2079 80.0077 20 80H49.1C53.1582 80.0013 57.1769 79.203 60.9265 77.6506C64.676 76.0981 68.0829 73.8221 70.9525 70.9525C73.8221 68.0829 76.0981 64.676 77.6506 60.9265C79.203 57.1769 80.0013 53.1582 80 49.1V16H60C56.8174 16 53.7652 17.2643 51.5147 19.5147C49.2643 21.7652 48 24.8174 48 28Z" fill="#FFB5A6"/>
</g>
<defs>
<clipPath id="clip0_2_13">
<rect width="80" height="80" fill="white"/>
</clipPath>
</defs>
</svg>
